#!OML:ASF H:\Pregnant\Project 1\Capture day 1\Session 1\femalepreg.ASF
:FULLY-SPECIFIED
:DEGREES
179
root 3.73469 9.99186 4.35827 52.3737 -0.263922 -2.63708
lowerback -10.3411 -1.15541 5.08836
upperback -4.99182 -2.0439 0.779702
thorax 0.440168 -1.11313 -2.2617
lowerneck -50.7704 0.0986444 1.8084
upperneck 17.6364 -2.26346 3.63237
head 13.0623 -0.193338 0.852714
rclavicle -1.35174e-014 5.56597e-015
rhumerus -65.451 58.1836 -91.4771
rradius 85.4904
rwrist -16.4728
rhand -57.6133 -45.1097
rfingers 7.12502
rthumb -29.877 -72.7192
lclavicle -1.35174e-014 5.56597e-015
lhumerus -62.5576 -34.934 80.4766
lradius 77.3197
lwrist 20.0109
lhand -55.9121 -73.9135
lfingers 7.12502
lthumb -28.2523 -46.0236
rfemur -144.168 -6.59163 28.3044
rtibia 90.256
rfoot 5.54298 -3.17536
rtoes -5.87352
lfemur -142.571 6.07912 -20.8652
ltibia 81.0666
lfoot 12.3544 -2.63323
ltoes -2.74885
180
root 3.73276 9.99706 4.36804 52.5251 -0.649927 -2.45517
lowerback -10.2387 -1.17205 4.68396
upperback -4.98189 -2.02182 0.670442
thorax 0.408981 -1.0972 -2.14354
lowerneck -51.0088 0.0646417 1.85249
upperneck 17.4968 -2.33072 3.59751
head 13.0272 -0.226256 0.818523
rclavicle 0 -8.74653e-015
rhumerus -65.9237 58.5009 -92.1257
rradius 85.1348
rwrist -16.4759
rhand -57.816 -45.834
rfingers 7.12502
rthumb -30.0703 -73.4085
lclavicle 0 -8.74653e-015
lhumerus -62.6374 -34.8142 80.6202
lradius 76.9315
lwrist 19.7227
lhand -55.9988 -74.8903
lfingers 7.12502
lthumb -28.3351 -47.0141
rfemur -144.337 -6.50524 27.9578
rtibia 90.1891
rfoot 5.61837 -3.10699
rtoes -5.87612
lfemur -142.643 6.12287 -21.2232
ltibia 81.177
lfoot 12.1694 -2.51752
ltoes -2.85267
181
root 3.73076 10.0031 4.37747 52.6659 -1.04556 -2.27878
lowerback -10.1308 -1.18786 4.26789
upperback -4.97231 -1.99827 0.559446
thorax 0.374481 -1.08033 -2.02018
lowerneck -51.2355 0.0374529 1.88879
upperneck 17.3414 -2.3879 3.57994
head 12.9844 -0.25292 0.794908
rclavicle -1.47101e-014 3.97569e-015
rhumerus -66.3807 58.7795 -92.7652
rradius 84.7684
rwrist -16.4596
rhand -58.0046 -46.557
rfingers 7.12502
rthumb -30.2502 -74.0986
lclavicle -1.47101e-014 3.97569e-015
lhumerus -62.7043 -34.6637 80.7454
lradius 76.5362
lwrist 19.4092
lhand -56.0828 -75.8273
lfingers 7.12502
lthumb -28.4153 -47.9645
rfemur -144.486 -6.412 27.6009
rtibia 90.1115
rfoot 5.69536 -3.04242
rtoes -5.86878
lfemur -142.701 6.17606 -21.5901
ltibia 81.2835
lfoot 11.9812 -2.40179
ltoes -2.95661
182
root 3.72876 10.01 4.38655 52.7938 -1.44835 -2.10549
lowerback -10.0162 -1.20419 3.84067
upperback -4.96329 -1.97518 0.447489
thorax 0.335615 -1.06348 -1.89128
lowerneck -51.4451 0.0169725 1.91775
upperneck 17.1721 -2.43573 3.58112
head 12.9344 -0.273344 0.782241
rclavicle -3.33958e-014 2.06736e-014
rhumerus -66.8231 59.0256 -93.3974
rradius 84.391
rwrist -16.4259
rhand -58.186 -47.2854
rfingers 7.12502
rthumb -30.4232 -74.7952
lclavicle -3.33958e-014 2.06736e-014
lhumerus -62.7613 -34.4807 80.8559
lradius 76.1279
lwrist 19.0743
lhand -56.165 -76.7607
lfingers 7.12502
lthumb -28.4939 -48.911
rfemur -144.613 -6.31601 27.2361
rtibia 90.0244
rfoot 5.77239 -2.97992
rtoes -5.85516
lfemur -142.74 6.23489 -21.9646
ltibia 81.3839
lfoot 11.7887 -2.28856
ltoes -3.07344
183
root 3.72686 10.0176 4.39537 52.9109 -1.85518 -1.93224
lowerback -9.89636 -1.22239 3.40566
upperback -4.95632 -1.95488 0.334487
thorax 0.291341 -1.04789 -1.75906
lowerneck -51.6368 0.00285922 1.94312
upperneck 16.9939 -2.47654 3.59824
head 12.879 -0.288627 0.778333
rclavicle 9.93923e-015 -1.59028e-014
rhumerus -67.2488 59.2379 -94.0218
rradius 83.9998
rwrist -16.3687
rhand -58.358 -48.015
rfingers 7.12502
rthumb -30.5873 -75.4943
lclavicle 9.93923e-015 -1.59028e-014
lhumerus -62.8082 -34.2645 80.9556
lradius 75.6979
lwrist 18.725
lhand -56.2436 -77.721
lfingers 7.12502
lthumb -28.569 -49.8839
rfemur -144.723 -6.22244 26.8646
rtibia 89.9292
rfoot 5.84874 -2.91798
rtoes -5.84726
lfemur -142.761 6.29397 -22.3468
ltibia 81.4768
lfoot 11.5932 -2.18053
ltoes -3.21289
184
root 3.72516 10.0261 4.4039 53.0164 -2.26259 -1.75539
lowerback -9.77016 -1.24308 2.9661
upperback -4.95181 -1.93854 0.218731
thorax 0.240417 -1.03422 -1.62719
lowerneck -51.8055 -0.00845436 1.95481
upperneck 16.8058 -2.51088 3.6419
head 12.8179 -0.297912 0.788929
rclavicle -1.39149e-014 4.77083e-015
rhumerus -67.6584 59.4155 -94.6379
rradius 83.5953
rwrist -16.2833
rhand -58.525 -48.7451
rfingers 7.12502
rthumb -30.7466 -76.1946
lclavicle -1.39149e-014 4.77083e-015
lhumerus -62.8476 -34.0204 81.0418
lradius 75.2521
lwrist 18.3671
lhand -56.3235 -78.7
lfingers 7.12502
lthumb -28.6453 -50.8758
rfemur -144.816 -6.13698 26.4876
rtibia 89.8263
rfoot 5.9252 -2.8568
rtoes -5.84135
lfemur -142.763 6.34736 -22.7353
ltibia 81.5598
lfoot 11.3938 -2.0775
ltoes -3.38675
185
root 3.72364 10.0354 4.4122 53.1096 -2.67086 -1.57583
lowerback -9.63575 -1.26583 2.52263
upperback -4.9505 -1.92576 0.100456
thorax 0.181107 -1.02226 -1.49568
lowerneck -51.9417 -0.0144422 1.97356
upperneck 16.6023 -2.53997 3.68167
head 12.7472 -0.305906 0.797585
rclavicle -1.19271e-014 0
rhumerus -68.0461 59.5549 -95.2425
rradius 83.1727
rwrist -16.163
rhand -58.6765 -49.4599
rfingers 7.12502
rthumb -30.891 -76.8821
lclavicle -1.19271e-014 0
lhumerus -62.8827 -33.7486 81.1181
lradius 74.7905
lwrist 17.9962
lhand -56.4046 -79.7546
lfingers 7.12502
lthumb -28.7228 -51.9435
rfemur -144.891 -6.05762 26.1071
rtibia 89.7167
rfoot 6.00006 -2.7938
rtoes -5.85341
lfemur -142.745 6.39648 -23.1307
ltibia 81.6337
lfoot 11.1902 -1.97855
ltoes -3.58921
